<svg preserveAspectRatio="xMinYMin meet" viewBox="0 0 177 43" width="177" height="43" xmlns="http://www.w3.org/2000/svg"><path d="M48.955 14.641h3.455v1.202c.372-.329 1.57-1.496 3.782-1.496 2.603 0 4.672 1.956 4.672 5.028v7.973h-3.65v-6.985c0-1.713-.82-2.728-2.305-2.728-1.439 0-2.305.957-2.305 2.728v6.985h-3.649zm34.766 6.353c0-3.665 2.884-6.647 6.661-6.647 3.776 0 6.659 2.982 6.659 6.647s-2.883 6.644-6.659 6.644c-3.777 0-6.661-2.979-6.661-6.644m3.603 0c0 1.756 1.288 3.2 3.08 3.2 1.793 0 3.084-1.444 3.084-3.2 0-1.756-1.29-3.2-3.084-3.2-1.791 0-3.08 1.444-3.08 3.2m-53.73.003c0-3.667 2.885-6.65 6.659-6.65 3.778 0 6.662 2.983 6.662 6.65 0 3.664-2.884 6.641-6.662 6.641-3.774 0-6.659-2.977-6.659-6.641m3.603-.001c0 1.756 1.288 3.2 3.082 3.2 1.793 0 3.082-1.444 3.082-3.2 0-1.758-1.288-3.2-3.082-3.2-1.794 0-3.082 1.442-3.082 3.2m77.55-7.762h3.699V10h-3.7zm0 14.114h3.699V14.641h-3.7zm6.552 0H125V10h-3.701zm-18.61 0H99.18V10h3.549v5.65c.176-.132 1.325-1.303 3.837-1.303 3.285 0 6.027 2.87 6.027 6.65 0 3.772-2.92 6.643-6.069 6.643-2.395 0-3.537-1.07-3.795-1.27zm6.154-6.36c0-1.787-1.331-3.174-3.114-3.174-1.772 0-3.132 1.374-3.132 3.183 0 1.787 1.342 3.173 3.128 3.173 1.77 0 3.118-1.39 3.118-3.183m-96.768 6.361h4.28l3.847-5.032 2.398 2.473-5.489 6.994h4.295l3.514-4.635L31.535 34h5.185l-9.508-9.73L34.7 14.64h-4.297l-5.534 7.232-2.394-2.45 6.155-7.89h-4.285l-4.204 5.505-2.283-2.397h-5.113l5.15 5.292zM0 10v17.348h11.226v-3.237H3.819v-4.145h7.074v-3.138H3.819v-3.596h7.407V10zm63.788 0v17.348h3.591V14.25h.163l3.09 13.1h4.035l3.162-13.1h.164v13.1h3.59V10H75.72l-2.92 12.661h-.13L69.821 10z" fill="#455065"/></svg>
