<svg preserveAspectRatio="xMinYMin meet" viewBox="0 0 177 43" width="177" height="43" xmlns="http://www.w3.org/2000/svg" xmlns:xlink="http://www.w3.org/1999/xlink"><defs><path d="M53.88 22.15c0 6-4.62 10.43-10.26 10.43a10.21 10.21 0 0 1-10.27-10.43c0-6 4.62-10.42 10.27-10.42 5.64 0 10.26 4.43 10.26 10.42zm-4.5 0c0-3.78-2.69-6.25-5.76-6.25-3.08 0-5.78 2.6-5.78 6.25s2.7 6.26 5.78 6.26c3.07 0 5.77-2.61 5.77-6.26zm27.59 0c0 6-4.62 10.43-10.26 10.43a10.21 10.21 0 0 1-10.27-10.43c0-6 4.62-10.42 10.27-10.42 5.64 0 10.26 4.43 10.26 10.42zm-4.49 0c0-3.78-2.7-6.25-5.77-6.25-3.08 0-5.78 2.6-5.78 6.25s2.7 6.26 5.78 6.26 5.77-2.61 5.77-6.26zm26.3-9.77v19.41c0 7.95-4.62 11.21-10.14 11.21-5.13 0-8.33-3.52-9.49-6.38l4.1-1.7c.78 1.7 2.57 3.78 5.4 3.78 3.59 0 5.77-2.22 5.77-6.38v-1.57h-.13a7.26 7.26 0 0 1-5.65 2.48c-5.38 0-10.26-4.7-10.26-10.82S83.26 11.6 88.64 11.6a7.26 7.26 0 0 1 5.65 2.47h.13v-1.7h4.36zm-4.1 10.16c0-3.78-2.57-6.64-5.78-6.64-3.2 0-5.9 2.73-5.9 6.64 0 3.78 2.7 6.52 5.9 6.52s5.77-2.74 5.77-6.52zM105.18 1.3v31.28h-3.85V1.3h3.85zm18.09 24.24l3.6 2.34a10.24 10.24 0 0 1-8.73 4.7c-5.9 0-10.4-4.56-10.4-10.43 0-6.25 4.5-10.42 9.89-10.42 5.38 0 8.08 4.3 8.98 6.64l.38 1.18-13.98 5.73a5.2 5.2 0 0 0 5 3.13c2.44.13 4.1-1.05 5.26-2.87zm-11.03-3.65l9.36-3.9c-.51-1.31-2.05-2.22-3.85-2.22-2.3 0-5.51 2.08-5.51 6.12zm-95.57-2.47v-4.44H31.8c.13.79.26 1.7.26 2.74 0 3.39-.9 7.43-3.85 10.43-2.95 2.86-6.67 4.43-11.54 4.43C7.57 32.58 0 25.28 0 16.28 0 7.3 7.57 0 16.68 0c5 0 8.6 1.95 11.29 4.43l-3.21 3.13a11.24 11.24 0 0 0-8.08-3.13c-6.67 0-11.8 5.34-11.8 11.86 0 6.51 5.13 11.86 11.8 11.86 4.23 0 6.8-1.7 8.34-3.26 1.28-1.3 2.05-3 2.43-5.47H16.68z" id="a"/></defs><g fill="none" fill-rule="evenodd"><mask id="b" fill="#fff"><use xlink:href="#a"/></mask><use fill="#B5B9C1" fill-rule="nonzero" xlink:href="#a"/><g mask="url(#b)" fill="#455065"><path d="M0 0h127v43H0z"/></g></g></svg>
