<svg preserveAspectRatio="xMinYMin meet" viewBox="0 0 177 43" width="177" height="43" xmlns="http://www.w3.org/2000/svg"><g fill="#455065"><path d="M16.733 30.66l-8.487-9.293-5.317 3.927v5.367H0V13h2.93v9.145L15.294 13h4.221l-9.026 6.683L20.492 30.66zM44.141 30.66l-8.486-9.293-5.32 3.927v5.367h-2.929V13h2.93v9.145L42.703 13h4.22l-9.026 6.683L47.901 30.66zM71.145 30.66l-4.778-6.733h-8.93v6.734h-2.925V13H68.44c3.71 0 5.95 2.146 5.95 5.561 0 3.12-1.95 4.782-4.585 5.22l4.735 6.88h-3.394zm.247-12.1c0-1.952-1.2-2.903-3.657-2.903H57.436v5.61h10.562c2.195 0 3.394-.975 3.394-2.706"/></g></svg>
